<svg width="1200" height="1200" viewBox="0 0 25 25" fill="none" xmlns="http://www.w3.org/2000/svg">
<g clip-path="url(#clip0_603_232)">
<path d="M25.0488 9.47265C25.0488 14.6797 25.0488 19.8624 25.0488 25.0469C16.7188 25.0469 8.38875 25.0469 0.053772 25.0469C0.053772 16.7208 0.053772 8.39283 0.053772 0.0568237C8.38215 0.0568237 16.7155 0.0568237 25.0488 0.0568237C25.0488 3.1835 25.0488 6.31587 25.0488 9.47265ZM24.5606 21.5088C24.5606 14.5218 24.5606 7.53488 24.5606 0.551001C16.5378 0.551001 8.54287 0.551001 0.551002 0.551001C0.551002 8.55986 0.551002 16.5548 0.551002 24.5466C8.55986 24.5466 16.5548 24.5466 24.5606 24.5466C24.5606 23.541 24.5606 22.5493 24.5606 21.5088Z" fill="black"/>
<path d="M24.5606 21.5332C24.5606 22.5493 24.5606 23.541 24.5606 24.5466C16.5548 24.5466 8.55988 24.5466 0.551025 24.5466C0.551025 16.5548 0.551025 8.55985 0.551025 0.550995C8.54289 0.550995 16.5378 0.550995 24.5606 0.550995C24.5606 7.53488 24.5606 14.5218 24.5606 21.5332ZM19.7676 20.9172C19.7676 20.7924 19.7676 20.6677 19.7676 20.509C19.8745 20.5685 19.9375 20.6016 19.9986 20.6379C20.8719 21.1574 21.7422 21.6823 22.6192 22.1955C23.1473 22.5045 23.6702 22.2137 23.6713 21.6047C23.6767 18.6107 23.6741 15.6166 23.6721 12.6226C23.6721 12.5343 23.6572 12.4435 23.6335 12.3583C23.5546 12.0748 23.3068 11.8829 23.0156 11.9136C22.8601 11.9299 22.6982 11.989 22.5621 12.068C21.7184 12.5576 20.8812 13.0586 20.0416 13.5552C19.9615 13.6026 19.8792 13.6461 19.7639 13.7104C19.8408 12.3895 19.3276 11.5259 18.0156 11.2402C20.5373 8.92236 20.1773 5.20776 17.8665 3.3189C16.6468 2.32191 15.2417 1.945 13.6898 2.20146C11.8197 2.51051 10.5194 3.59837 9.65392 5.27806C8.8051 4.18368 7.70937 3.55159 6.33708 3.44165C4.95851 3.33122 3.77598 3.79333 2.78638 4.74122C1.18486 6.27523 0.753809 9.21756 2.83729 11.3096C2.81723 11.3223 2.79927 11.3377 2.77849 11.3462C1.83946 11.7312 1.42443 12.3447 1.42412 13.356C1.42335 15.8537 1.42215 18.3515 1.42689 20.8492C1.4273 21.0667 1.44215 21.2916 1.49822 21.5002C1.75258 22.4461 2.46837 22.9728 3.50798 22.9736C8.23499 22.9772 12.962 22.9791 17.689 22.9667C18.0123 22.9658 18.3626 22.9015 18.653 22.7655C19.4001 22.4157 19.7394 21.7759 19.7676 20.9172Z" fill="white"/>
<path d="M19.7676 20.9397C19.7394 21.776 19.4001 22.4157 18.653 22.7655C18.3626 22.9015 18.0123 22.9658 17.689 22.9667C12.962 22.9791 8.235 22.9772 3.50799 22.9736C2.46838 22.9728 1.75258 22.4462 1.49823 21.5002C1.44216 21.2916 1.42731 21.0667 1.42689 20.8492C1.42216 18.3515 1.42336 15.8537 1.42413 13.356C1.42444 12.3447 1.83947 11.7312 2.77849 11.3462C2.79928 11.3377 2.81724 11.3223 2.83729 11.3096C0.753816 9.21757 1.18487 6.27524 2.78639 4.74122C3.77599 3.79333 4.95852 3.33122 6.33709 3.44166C7.70938 3.55159 8.80511 4.18368 9.65392 5.27806C10.5194 3.59837 11.8197 2.51052 13.6898 2.20147C15.2417 1.945 16.6468 2.32192 17.8665 3.31891C20.1773 5.20777 20.5373 8.92236 18.0156 11.2402C19.3276 11.5259 19.8408 12.3895 19.7639 13.7104C19.8792 13.6461 19.9615 13.6026 20.0416 13.5552C20.8813 13.0586 21.7184 12.5576 22.5621 12.068C22.6983 11.989 22.8601 11.9299 23.0156 11.9136C23.3068 11.8829 23.5546 12.0748 23.6335 12.3583C23.6572 12.4435 23.6721 12.5343 23.6721 12.6226C23.6741 15.6166 23.6767 18.6107 23.6713 21.6047C23.6702 22.2137 23.1473 22.5045 22.6192 22.1955C21.7422 21.6823 20.8719 21.1575 19.9986 20.6379C19.9375 20.6016 19.8745 20.5685 19.7676 20.509C19.7676 20.6677 19.7676 20.7924 19.7676 20.9397ZM9.05764 21.6794C11.9291 21.6794 14.8005 21.6796 17.6719 21.6793C18.2147 21.6792 18.4565 21.4359 18.4566 20.8893C18.4571 18.3676 18.4571 15.846 18.4565 13.3243C18.4564 12.7891 18.2176 12.5494 17.6847 12.5493C12.9586 12.5489 8.23257 12.5489 3.50652 12.5493C2.97786 12.5494 2.72751 12.796 2.72723 13.3237C2.72588 15.8454 2.72603 18.367 2.7271 20.8887C2.72733 21.4255 2.98291 21.6791 3.51814 21.6792C5.34837 21.6797 7.17859 21.6794 9.05764 21.6794ZM11.3265 5.05304C10.1056 6.71407 10.3594 8.93039 11.9222 10.2555C13.5153 11.6061 15.6536 11.5765 17.2098 10.1823C19.09 8.49778 18.7929 5.34248 16.6301 4.02684C14.8502 2.94401 12.6482 3.35987 11.3265 5.05304ZM8.1708 10.3925C8.90316 9.71143 9.25767 8.87309 9.23424 7.87116C9.1834 5.69762 6.95634 4.17 4.91277 4.91034C2.91887 5.63269 2.12755 7.89388 3.23113 9.71563C4.25956 11.4133 6.68201 11.7581 8.1708 10.3925ZM21.4491 19.9829C21.7464 20.1588 22.0438 20.3346 22.3515 20.5166C22.3515 18.2344 22.3515 15.984 22.3515 13.7116C21.5106 14.2069 20.6922 14.6849 19.8807 15.1744C19.8183 15.2119 19.7728 15.3292 19.7723 15.4097C19.7653 16.5396 19.7704 17.6695 19.7639 18.7994C19.7631 18.9414 19.8112 19.0164 19.93 19.085C20.429 19.3732 20.9226 19.6709 21.4491 19.9829ZM10.423 10.5955C10.2996 10.4272 10.1761 10.2589 10.0637 10.1056C9.78242 10.4872 9.51167 10.8546 9.24264 11.2197C9.8306 11.2197 10.4151 11.2197 10.9996 11.2197C11.0113 11.2015 11.023 11.1833 11.0346 11.1651C10.8386 10.9838 10.6425 10.8025 10.423 10.5955Z" fill="#1503B9"/>
<path d="M11.3366 5.03886C12.6482 3.35988 14.8501 2.94402 16.6301 4.02684C18.7928 5.34249 19.0899 8.49779 17.2097 10.1823C15.6535 11.5765 13.5152 11.6061 11.9222 10.2555C10.3593 8.9304 10.1055 6.71408 11.3366 5.03886ZM16.4112 9.16C16.9287 8.62204 17.1663 7.98047 17.1446 7.23416C17.1054 5.88608 16.0028 4.76902 14.6649 4.73223C13.2464 4.69323 12.0615 5.72852 11.9539 7.10083C11.8675 8.2035 12.4507 9.22714 13.4285 9.68932C14.4216 10.1588 15.5747 9.96156 16.4112 9.16Z" fill="#FDFDFE"/>
<path d="M8.1575 10.4037C6.68201 11.7581 4.25956 11.4133 3.23113 9.71564C2.12756 7.89389 2.91887 5.6327 4.91277 4.91035C6.95634 4.17001 9.18341 5.69763 9.23424 7.87117C9.25767 8.8731 8.90316 9.71144 8.1575 10.4037ZM5.428 6.12588C4.29617 6.5001 3.72495 7.73437 4.20444 8.76971C4.6092 9.64369 5.57189 10.1003 6.46224 9.87551C7.30004 9.66401 8.04957 8.78274 7.91778 7.73952C7.77282 6.59213 6.56996 5.78161 5.428 6.12588Z" fill="#FDFDFE"/>
<path d="M21.4336 19.974C20.9226 19.6709 20.429 19.3732 19.93 19.085C19.8112 19.0164 19.7631 18.9414 19.7639 18.7994C19.7704 17.6695 19.7653 16.5396 19.7723 15.4097C19.7728 15.3292 19.8183 15.2119 19.8807 15.1744C20.6922 14.6849 21.5106 14.2069 22.3515 13.7116C22.3515 15.984 22.3515 18.2344 22.3515 20.5166C22.0438 20.3346 21.7464 20.1588 21.4336 19.974Z" fill="#FEFEFF"/>
<path d="M10.4347 10.6084C10.6425 10.8025 10.8385 10.9838 11.0346 11.1651C11.0229 11.1833 11.0113 11.2015 10.9996 11.2197C10.4151 11.2197 9.83058 11.2197 9.24261 11.2197C9.51165 10.8546 9.7824 10.4872 10.0637 10.1056C10.1761 10.2589 10.2995 10.4272 10.4347 10.6084Z" fill="#F9F8FD"/>
<path d="M16.3985 9.17176C15.5747 9.96156 14.4216 10.1588 13.4285 9.68932C12.4507 9.22714 11.8675 8.2035 11.9539 7.10083C12.0615 5.72852 13.2464 4.69324 14.6649 4.73224C16.0028 4.76902 17.1054 5.88608 17.1446 7.23416C17.1663 7.98047 16.9287 8.62205 16.3985 9.17176ZM14.5696 8.6403C15.5051 8.57253 15.9571 7.74466 15.824 7.08868C15.6817 6.38766 15.0427 5.94453 14.3005 6.05451C13.6478 6.15123 13.1669 6.82364 13.2633 7.50481C13.3546 8.15005 13.7868 8.53818 14.5696 8.6403Z" fill="#1502B9"/>
<path d="M5.44667 6.11852C6.56995 5.78159 7.77281 6.59211 7.91777 7.7395C8.04956 8.78272 7.30003 9.66399 6.46223 9.87549C5.57188 10.1003 4.60919 9.64367 4.20443 8.76969C3.72494 7.73435 4.29616 6.50008 5.44667 6.11852ZM6.63584 7.90568C6.59367 7.8101 6.56334 7.7068 6.50701 7.62046C6.36613 7.40454 6.15725 7.30723 5.90291 7.34409C5.64174 7.38195 5.45933 7.53654 5.37189 7.78562C5.2827 8.03964 5.34192 8.26979 5.54032 8.44921C5.74086 8.63055 5.97705 8.69726 6.23509 8.57947C6.50336 8.45701 6.63848 8.24191 6.63584 7.90568Z" fill="#1502B9"/>
<path d="M14.5487 8.64031C13.7869 8.53819 13.3546 8.15005 13.2633 7.50481C13.1669 6.82364 13.6478 6.15123 14.3005 6.05451C15.0427 5.94454 15.6818 6.38766 15.824 7.08868C15.9571 7.74466 15.5052 8.57253 14.5487 8.64031Z" fill="#FDFDFE"/>
<path d="M6.63728 7.92532C6.63847 8.24191 6.50334 8.45701 6.23508 8.57947C5.97704 8.69726 5.74085 8.63055 5.54031 8.44921C5.3419 8.26979 5.28269 8.03964 5.37187 7.78562C5.45932 7.53654 5.64172 7.38195 5.9029 7.34409C6.15723 7.30723 6.36612 7.40453 6.50699 7.62045C6.56332 7.7068 6.59366 7.8101 6.63728 7.92532Z" fill="#FAFAFD"/>
</g>
<defs>
<clipPath id="clip0_603_232">
<rect width="25" height="25" fill="white"/>
</clipPath>
</defs>
</svg>
